<mxfile host="app.diagrams.net" modified="2021-10-13T14:23:52.460Z" agent="5.0 (Windows NT 10.0; Win64; x64) AppleWebKit/537.36 (KHTML, like Gecko) Chrome/93.0.4577.82 Safari/537.36" etag="VK3bYtVFTaN9V36ahz7x" version="15.4.1" type="github">
  <diagram id="C5RBs43oDa-KdzZeNtuy" name="Page-1">
    <mxGraphModel dx="862" dy="450" grid="1" gridSize="10" guides="1" tooltips="1" connect="1" arrows="1" fold="1" page="1" pageScale="1" pageWidth="827" pageHeight="1169" math="0" shadow="0">
      <root>
        <mxCell id="WIyWlLk6GJQsqaUBKTNV-0" />
        <mxCell id="WIyWlLk6GJQsqaUBKTNV-1" parent="WIyWlLk6GJQsqaUBKTNV-0" />
        <mxCell id="cdbck4eOsYzxW8ywCNSQ-2" value="Need for part status" style="edgeStyle=orthogonalEdgeStyle;rounded=0;orthogonalLoop=1;jettySize=auto;html=1;entryX=0;entryY=0.5;entryDx=0;entryDy=0;entryPerimeter=0;" edge="1" parent="WIyWlLk6GJQsqaUBKTNV-1" source="cdbck4eOsYzxW8ywCNSQ-0" target="cdbck4eOsYzxW8ywCNSQ-1">
          <mxGeometry relative="1" as="geometry" />
        </mxCell>
        <mxCell id="cdbck4eOsYzxW8ywCNSQ-0" value="Start" style="ellipse;whiteSpace=wrap;html=1;" vertex="1" parent="WIyWlLk6GJQsqaUBKTNV-1">
          <mxGeometry x="65" y="67.5" width="95" height="65" as="geometry" />
        </mxCell>
        <mxCell id="cdbck4eOsYzxW8ywCNSQ-8" value="" style="edgeStyle=orthogonalEdgeStyle;rounded=0;orthogonalLoop=1;jettySize=auto;html=1;" edge="1" parent="WIyWlLk6GJQsqaUBKTNV-1" source="cdbck4eOsYzxW8ywCNSQ-1" target="cdbck4eOsYzxW8ywCNSQ-5">
          <mxGeometry relative="1" as="geometry" />
        </mxCell>
        <mxCell id="cdbck4eOsYzxW8ywCNSQ-1" value="Excel file containing part number" style="whiteSpace=wrap;html=1;shape=mxgraph.basic.document" vertex="1" parent="WIyWlLk6GJQsqaUBKTNV-1">
          <mxGeometry x="314" y="40" width="96" height="120" as="geometry" />
        </mxCell>
        <mxCell id="cdbck4eOsYzxW8ywCNSQ-12" value="" style="edgeStyle=orthogonalEdgeStyle;rounded=0;orthogonalLoop=1;jettySize=auto;html=1;" edge="1" parent="WIyWlLk6GJQsqaUBKTNV-1" source="cdbck4eOsYzxW8ywCNSQ-5" target="cdbck4eOsYzxW8ywCNSQ-11">
          <mxGeometry relative="1" as="geometry" />
        </mxCell>
        <mxCell id="cdbck4eOsYzxW8ywCNSQ-5" value="Macro assigned" style="labelPosition=center;verticalLabelPosition=middle;align=center;html=1;shape=mxgraph.basic.shaded_button;dx=10;fillColor=#E6E6E6;strokeColor=none;" vertex="1" parent="WIyWlLk6GJQsqaUBKTNV-1">
          <mxGeometry x="500" y="70" width="120" height="60" as="geometry" />
        </mxCell>
        <mxCell id="cdbck4eOsYzxW8ywCNSQ-17" value="Pytthon Script" style="edgeStyle=orthogonalEdgeStyle;rounded=0;orthogonalLoop=1;jettySize=auto;html=1;entryX=0;entryY=0.5;entryDx=0;entryDy=0;" edge="1" parent="WIyWlLk6GJQsqaUBKTNV-1" source="cdbck4eOsYzxW8ywCNSQ-11" target="cdbck4eOsYzxW8ywCNSQ-13">
          <mxGeometry relative="1" as="geometry" />
        </mxCell>
        <mxCell id="cdbck4eOsYzxW8ywCNSQ-53" value="Query output&amp;nbsp; in excel" style="edgeStyle=orthogonalEdgeStyle;rounded=0;orthogonalLoop=1;jettySize=auto;html=1;entryX=1;entryY=0.5;entryDx=0;entryDy=0;" edge="1" parent="WIyWlLk6GJQsqaUBKTNV-1" source="cdbck4eOsYzxW8ywCNSQ-11" target="cdbck4eOsYzxW8ywCNSQ-52">
          <mxGeometry relative="1" as="geometry" />
        </mxCell>
        <mxCell id="cdbck4eOsYzxW8ywCNSQ-11" value="" style="verticalLabelPosition=bottom;html=1;verticalAlign=top;align=center;strokeColor=none;fillColor=#00BEF2;shape=mxgraph.azure.script_file;pointerEvents=1;" vertex="1" parent="WIyWlLk6GJQsqaUBKTNV-1">
          <mxGeometry x="520" y="250" width="80" height="70" as="geometry" />
        </mxCell>
        <mxCell id="cdbck4eOsYzxW8ywCNSQ-21" value="Print Query Output" style="edgeStyle=orthogonalEdgeStyle;rounded=0;orthogonalLoop=1;jettySize=auto;html=1;entryX=0.5;entryY=1;entryDx=0;entryDy=0;entryPerimeter=0;" edge="1" parent="WIyWlLk6GJQsqaUBKTNV-1" source="cdbck4eOsYzxW8ywCNSQ-13" target="cdbck4eOsYzxW8ywCNSQ-11">
          <mxGeometry relative="1" as="geometry">
            <Array as="points">
              <mxPoint x="820" y="340" />
              <mxPoint x="560" y="340" />
            </Array>
          </mxGeometry>
        </mxCell>
        <mxCell id="cdbck4eOsYzxW8ywCNSQ-22" style="edgeStyle=orthogonalEdgeStyle;rounded=0;orthogonalLoop=1;jettySize=auto;html=1;entryX=0.5;entryY=1;entryDx=0;entryDy=0;" edge="1" parent="WIyWlLk6GJQsqaUBKTNV-1" source="cdbck4eOsYzxW8ywCNSQ-13" target="cdbck4eOsYzxW8ywCNSQ-14">
          <mxGeometry relative="1" as="geometry" />
        </mxCell>
        <mxCell id="cdbck4eOsYzxW8ywCNSQ-13" value="SQL Query" style="shape=process;whiteSpace=wrap;html=1;backgroundOutline=1;" vertex="1" parent="WIyWlLk6GJQsqaUBKTNV-1">
          <mxGeometry x="760" y="250" width="120" height="60" as="geometry" />
        </mxCell>
        <mxCell id="cdbck4eOsYzxW8ywCNSQ-16" value="Query Output" style="edgeStyle=orthogonalEdgeStyle;rounded=0;orthogonalLoop=1;jettySize=auto;html=1;entryX=1;entryY=0.5;entryDx=0;entryDy=0;" edge="1" parent="WIyWlLk6GJQsqaUBKTNV-1" source="cdbck4eOsYzxW8ywCNSQ-14" target="cdbck4eOsYzxW8ywCNSQ-13">
          <mxGeometry relative="1" as="geometry">
            <Array as="points">
              <mxPoint x="900" y="115" />
              <mxPoint x="900" y="280" />
            </Array>
          </mxGeometry>
        </mxCell>
        <mxCell id="cdbck4eOsYzxW8ywCNSQ-14" value="SAP HANA" style="shape=datastore;whiteSpace=wrap;html=1;" vertex="1" parent="WIyWlLk6GJQsqaUBKTNV-1">
          <mxGeometry x="790" y="80" width="60" height="70" as="geometry" />
        </mxCell>
        <mxCell id="cdbck4eOsYzxW8ywCNSQ-57" value="" style="edgeStyle=orthogonalEdgeStyle;rounded=0;orthogonalLoop=1;jettySize=auto;html=1;" edge="1" parent="WIyWlLk6GJQsqaUBKTNV-1" source="cdbck4eOsYzxW8ywCNSQ-52" target="cdbck4eOsYzxW8ywCNSQ-56">
          <mxGeometry relative="1" as="geometry" />
        </mxCell>
        <mxCell id="cdbck4eOsYzxW8ywCNSQ-52" value="&lt;div&gt;Excel containing criticality&lt;/div&gt;" style="shape=image;html=1;verticalAlign=top;verticalLabelPosition=bottom;labelBackgroundColor=#ffffff;imageAspect=0;aspect=fixed;image=https://cdn0.iconfinder.com/data/icons/logos-microsoft-office-365/128/Microsoft_Office-02-128.png;align=center;" vertex="1" parent="WIyWlLk6GJQsqaUBKTNV-1">
          <mxGeometry x="229" y="242.5" width="85" height="85" as="geometry" />
        </mxCell>
        <mxCell id="cdbck4eOsYzxW8ywCNSQ-56" value="End" style="ellipse;shape=doubleEllipse;whiteSpace=wrap;html=1;" vertex="1" parent="WIyWlLk6GJQsqaUBKTNV-1">
          <mxGeometry x="60" y="255" width="100" height="60" as="geometry" />
        </mxCell>
      </root>
    </mxGraphModel>
  </diagram>
</mxfile>
